<?xml version="1.0" encoding="utf-8"?>
<!-- Generator: Adobe Illustrator 26.0.1, SVG Export Plug-In . SVG Version: 6.00 Build 0)  -->
<svg version="1.1" id="Layer_1" xmlns="http://www.w3.org/2000/svg" xmlns:xlink="http://www.w3.org/1999/xlink" x="0px" y="0px"
	 viewBox="0 0 77.6 52" style="enable-background:new 0 0 77.6 52;" xml:space="preserve">
<style type="text/css">
	.st0{fill:#E6E6E6;}
	.st1{fill:#D9151B;}
	.st2{fill:#FFFFFF;}
</style>
<g>
	<g>
		<g>
			<g>
				<path class="st0" d="M30.1,7.1l-1.6-1.6c-1.6-1.6-3.5-1.6-5.3,0.2L22,6.9c-1.8,1.8-1.8,3.7-0.2,5.3l1.6,1.6
					c1.6,1.6,3.5,1.6,5.3-0.2l1.3-1.3C31.7,10.6,31.7,8.7,30.1,7.1z M22.1,15.1l-1.6-1.6c-1.6-1.6-3.5-1.6-5.3,0.2l-1.3,1.3
					c-1.8,1.8-1.8,3.7-0.2,5.3l5.1,5.1c0.6,0.6,1.3,0.5,1.7,0c0.5-0.5,0.5-1.1-0.1-1.7l-1.2-1.2c0.3-0.1,0.7-0.3,1.2-0.8l1.4-1.4
					C23.7,18.6,23.7,16.7,22.1,15.1z M15.7,25.1l-3.4-3.4c-1.6-1.6-3.5-1.6-5.3,0.2l-1.3,1.3C4,24.9,4,26.8,5.6,28.4L9,31.8
					c0.6,0.6,1.3,0.5,1.7,0c0.5-0.5,0.5-1.1-0.1-1.7l-3.4-3.4c-0.6-0.6-0.6-1.2,0.1-2l1.3-1.3c0.7-0.7,1.3-0.7,2-0.1l3.4,3.4
					c0.6,0.6,1.2,0.5,1.7,0.1C16.2,26.3,16.3,25.6,15.7,25.1L15.7,25.1z M50.4,29.3L29.3,50.4c-2.1,2.1-4.6,2.1-6.7,0L1.6,29.3
					c-2.1-2.1-2.1-4.6,0-6.7L22.7,1.6c2.1-2.1,4.6-2.1,6.7,0l21.1,21.1C52.5,24.8,52.5,27.2,50.4,29.3z M26.9,7.2
					c-0.6-0.6-1.2-0.6-2,0.1l-1.3,1.3c-0.7,0.7-0.7,1.3-0.1,2l1.5,1.5c0.6,0.6,1.2,0.6,2-0.1l1.3-1.3c0.7-0.7,0.7-1.3,0.1-2
					L26.9,7.2L26.9,7.2z M20.4,16.7c0.6,0.6,0.6,1.2-0.1,2L19,20c-0.7,0.7-1.3,0.7-2,0.1l-1.5-1.5c-0.6-0.6-0.6-1.2,0.1-2l1.3-1.3
					c0.7-0.7,1.3-0.7,2-0.1C18.9,15.2,20.4,16.7,20.4,16.7z"/>
				<path class="st1" d="M20.4,16.7l-1.5-1.5c-0.6-0.6-1.2-0.6-2,0.1l-1.3,1.3c-0.7,0.7-0.7,1.3-0.1,2l1.5,1.5
					c0.6,0.6,1.2,0.6,2-0.1l1.3-1.3C21,18,21,17.4,20.4,16.7z M22.1,15.1c1.6,1.6,1.6,3.5-0.2,5.3l-1.4,1.4
					c-0.5,0.5-0.9,0.7-1.2,0.8l1.2,1.2c0.6,0.6,0.5,1.2,0.1,1.7c-0.5,0.5-1.1,0.5-1.7,0l-5.1-5.1c-1.6-1.6-1.6-3.5,0.2-5.3l1.3-1.3
					c1.8-1.8,3.7-1.8,5.3-0.2C20.5,13.5,22.1,15.1,22.1,15.1z M28.4,8.7l-1.5-1.5c-0.6-0.6-1.2-0.6-2,0.1l-1.3,1.3
					c-0.7,0.7-0.7,1.3-0.1,2l1.5,1.5c0.6,0.6,1.2,0.6,2-0.1l1.3-1.3C29,9.9,29.1,9.3,28.4,8.7z M30.1,7.1c1.6,1.6,1.6,3.5-0.2,5.3
					l-1.3,1.3c-1.8,1.8-3.7,1.8-5.3,0.2l-1.6-1.6c-1.6-1.6-1.6-3.5,0.2-5.3l1.3-1.3c1.8-1.8,3.7-1.8,5.3-0.2
					C28.5,5.5,30.1,7.1,30.1,7.1z M15.7,25.1c0.6,0.6,0.5,1.3,0,1.7c-0.5,0.5-1.1,0.5-1.7-0.1l-3.4-3.4c-0.6-0.6-1.2-0.6-2,0.1
					l-1.3,1.3c-0.7,0.7-0.7,1.3-0.1,2l3.4,3.4c0.6,0.6,0.5,1.2,0.1,1.7c-0.5,0.5-1.1,0.5-1.7,0l-3.4-3.4C4,26.8,4,24.9,5.8,23.1
					l1.3-1.3c1.8-1.8,3.7-1.8,5.3-0.2C12.3,21.7,15.7,25.1,15.7,25.1z M27.2,22.7c-2.1,2.1-2.1,4.6,0,6.7l21.1,21.1
					c2.1,2.1,4.6,2.1,6.7,0L76,29.3c2.1-2.1,2.1-4.6,0-6.7L55,1.6c-2.1-2.1-4.6-2.1-6.7,0C48.3,1.6,27.2,22.7,27.2,22.7z"/>
				<path class="st2" d="M57.7,34.5c1.5,0,2.3-1,2.3-2.1v-6.8c0-1.2-0.8-2.1-2.3-2.1l-12.2,0c-1.5,0-2.3,0.9-2.3,2.1
					c0,1.1,0.8,2.1,2.3,2.1l9.5,0c0.3,0,0.5,0.2,0.5,0.6l0,1.6c0,0.4-0.2,0.6-0.5,0.6h-9.4c-1.5,0-2.3,1-2.3,2.1v6.8
					c0,1.2,0.8,2.1,2.3,2.1h12.2c1.5,0,2.3-0.9,2.3-2.1s-0.8-2.1-2.3-2.1h-9.5c-0.3,0-0.5-0.2-0.5-0.6V35c0-0.4,0.2-0.6,0.5-0.6
					L57.7,34.5L57.7,34.5z M38.7,15.8c0-0.4,0.2-0.6,0.5-0.7c0.6-0.2,1.3-0.3,1.9-0.3c0.3,0,0.6,0,0.9,0.1c0.3,0,0.5,0.2,0.5,0.5
					c0,0,0,0.2,0,0.2l0,0.1c-0.1,0.3-0.2,0.5-0.5,0.5c-0.2,0-0.5,0-0.8,0c-0.3,0-0.7,0-1,0.1v4.2c0,0.4-0.2,0.5-0.5,0.5h-0.4
					c-0.4,0-0.5-0.2-0.5-0.5V15.8z M46.8,18.4c-0.3-0.1-0.6-0.1-1-0.1c-0.9,0-1.4,0.3-1.4,0.9c0,0.6,0.4,0.9,1.4,0.9
					c0.3,0,0.7,0,1-0.1C46.8,19.9,46.8,18.4,46.8,18.4z M43.6,15.8c0-0.1,0-0.2,0-0.3c0-0.2,0.2-0.3,0.3-0.4
					c0.4-0.2,1.2-0.3,1.9-0.3c1.7,0,2.5,0.7,2.5,2.5v3c0,0.4-0.2,0.5-0.5,0.6c-0.4,0.1-1.4,0.2-2.1,0.2c-1.7,0-2.7-0.6-2.7-2
					c0-1.3,1-1.9,2.6-1.9c0.6,0,1.1,0.1,1.3,0.2v-0.2c0-0.7-0.4-1.2-1.3-1.2c-0.5,0-0.8,0.1-1.2,0.2c-0.1,0-0.2,0.1-0.3,0.1
					c-0.2,0-0.3-0.1-0.4-0.4C43.6,15.9,43.6,15.8,43.6,15.8z M53.6,16.2c-0.2-0.1-0.5-0.1-0.8-0.1c-1.3,0-1.8,0.8-1.8,1.9
					c0,1.1,0.5,1.9,1.8,1.9c0.3,0,0.6,0,0.8-0.1C53.6,19.8,53.6,16.2,53.6,16.2z M53.6,13c0-0.4,0.2-0.5,0.5-0.5h0.4
					c0.4,0,0.5,0.2,0.5,0.5v7.2c0,0.4-0.2,0.5-0.5,0.6c-0.4,0.1-1.2,0.2-1.8,0.2c-2.2,0-3.3-1.2-3.3-3.1c0-2,1.2-3.2,3.1-3.2
					c0.4,0,0.8,0.1,1,0.1C53.6,15,53.6,13,53.6,13z M56.6,15.5c0-0.4,0.2-0.5,0.5-0.5h0.4c0.4,0,0.5,0.2,0.5,0.5v5
					c0,0.4-0.2,0.5-0.5,0.5h-0.4c-0.4,0-0.5-0.2-0.5-0.5C56.6,20.5,56.6,15.5,56.6,15.5z M57.3,12.4c0.5,0,0.9,0.3,0.9,0.9
					c0,0.5-0.4,0.9-0.9,0.9s-0.9-0.3-0.9-0.9S56.8,12.4,57.3,12.4z M64,18c0-1.2-0.6-1.9-1.5-1.9S61,16.8,61,18
					c0,1.2,0.5,1.9,1.5,1.9S64,19.2,64,18z M59.5,18c0-2,1.2-3.1,3-3.1c1.8,0,3,1.1,3,3.1c0,2.1-1.2,3.1-3,3.1
					C60.7,21.1,59.5,20,59.5,18z"/>
			</g>
		</g>
	</g>
</g>
</svg>
