<?xml version="1.0" encoding="utf-8"?>
<!-- Generator: Adobe Illustrator 26.0.1, SVG Export Plug-In . SVG Version: 6.00 Build 0)  -->
<svg version="1.1" id="Layer_1" xmlns="http://www.w3.org/2000/svg" xmlns:xlink="http://www.w3.org/1999/xlink" x="0px" y="0px"
	 viewBox="0 0 810 299.8" style="enable-background:new 0 0 810 299.8;" xml:space="preserve">
<style type="text/css">
	.st0{fill:#E6E6E6;}
	.st1{fill:#D9151B;}
	.st2{fill:#FFFFFF;}
</style>
<g id="XMLID_26_">
	<path id="XMLID_48_" class="st0" d="M131.2,96.4c3.7,3.7,3.6,7.1-0.6,11.3l-7.8,7.8c-4.1,4.1-7.6,4.2-11.3,0.6l-8.9-8.9
		c-3.7-3.7-3.6-7.1,0.5-11.3l7.8-7.8c4.1-4.1,7.6-4.2,11.3-0.6L131.2,96.4z M168.6,41.3c-3.7-3.7-7.2-3.6-11.3,0.6l-7.8,7.8
		c-4.1,4.1-4.2,7.6-0.5,11.3l8.9,8.9c3.7,3.7,7.1,3.6,11.3-0.6l7.8-7.8c4.1-4.1,4.2-7.6,0.6-11.3L168.6,41.3z M304.3,169.1
		L182.7,290.6c-12.2,12.2-26.3,12.2-38.5,0L22.8,169.1c-12.2-12.2-12.2-26.3,0-38.5L144.3,9.1C156.5-3,170.6-3,182.8,9.1
		l121.5,121.5C316.5,142.9,316.5,156.9,304.3,169.1 M104.3,144.4l-19.6-19.6c-9.2-9.2-20.1-9.3-30.4,0.9l-7.3,7.3
		c-10.3,10.3-10.1,21.3-0.9,30.4L65.7,183c3.4,3.4,7.3,2.9,9.9,0.3c2.6-2.6,3.1-6.4-0.4-9.8l-19.4-19.4c-3.7-3.7-3.6-7.1,0.6-11.3
		l7.8-7.8c4.1-4.1,7.6-4.3,11.3-0.6l19.4,19.4c3.4,3.4,7.2,3,9.8,0.3C107.2,151.7,107.7,147.9,104.3,144.4 M141,87l-9.2-9.2
		c-9.1-9.2-20.1-9.3-30.4,1l-7.3,7.3c-10.3,10.3-10.1,21.2-1,30.4l29.6,29.6c3.4,3.4,7.3,2.9,9.9,0.3c2.6-2.6,3.1-6.4-0.3-9.8
		l-6.8-6.8c1.9-0.4,4.1-1.8,6.8-4.5l7.8-7.8C150.3,107.2,150.1,96.2,141,87 M187.2,40.8l-9.2-9.2c-9.1-9.2-20.1-9.3-30.4,1l-7.3,7.3
		c-10.3,10.3-10.1,21.2-1,30.4l9.2,9.2c9.1,9.2,20.1,9.3,30.4-0.9l7.3-7.3C196.5,61,196.3,50,187.2,40.8"/>
	<path id="XMLID_42_" class="st1" d="M104.3,144.4c3.4,3.4,2.9,7.2,0.3,9.9c-2.6,2.6-6.4,3.1-9.8-0.3l-19.4-19.4
		c-3.7-3.7-7.2-3.6-11.3,0.6l-7.8,7.8c-4.1,4.1-4.2,7.6-0.6,11.3l19.4,19.4c3.4,3.4,3,7.2,0.4,9.8c-2.6,2.6-6.5,3.1-9.9-0.3
		L46,163.5c-9.2-9.2-9.3-20.2,0.9-30.4l7.3-7.3c10.3-10.3,21.3-10.1,30.4-0.9L104.3,144.4z M187.2,40.8c9.1,9.2,9.3,20.2-1,30.4
		l-7.3,7.3c-10.3,10.3-21.3,10.1-30.4,0.9l-9.2-9.2c-9.1-9.2-9.3-20.1,1-30.4l7.3-7.3c10.3-10.3,21.3-10.1,30.4-1L187.2,40.8z
		 M177.5,50.2l-8.9-8.9c-3.7-3.7-7.2-3.6-11.3,0.6l-7.8,7.8c-4.1,4.1-4.2,7.6-0.5,11.3l8.9,8.9c3.7,3.7,7.1,3.6,11.3-0.6l7.8-7.8
		C181,57.3,181.1,53.9,177.5,50.2 M141,87c9.1,9.2,9.3,20.2-1,30.4l-7.8,7.8c-2.7,2.7-5,4.1-6.8,4.5l6.8,6.8c3.4,3.4,3,7.2,0.3,9.8
		c-2.6,2.6-6.5,3.1-9.9-0.3L93,116.4c-9.1-9.2-9.3-20.1,1-30.4l7.3-7.3c10.3-10.3,21.2-10.1,30.4-1L141,87z M131.2,96.4l-8.9-8.9
		c-3.7-3.7-7.1-3.6-11.3,0.6l-7.7,7.8c-4.1,4.1-4.2,7.6-0.5,11.3l8.9,8.9c3.7,3.7,7.1,3.6,11.3-0.6l7.8-7.8
		C134.8,103.6,134.9,100.1,131.2,96.4"/>
	<path id="XMLID_41_" class="st1" d="M170.5,130.7c-12.2,12.2-12.2,26.3,0,38.5L292,290.6c12.2,12.2,26.3,12.2,38.5,0L452,169.1
		c12.2-12.2,12.2-26.3,0-38.5L330.5,9.2C318.3-3,304.2-3,292,9.2L170.5,130.7z"/>
	<path id="XMLID_40_" class="st2" d="M346.4,198.9c8.8,0,13.3-5.5,13.3-12.3v-39.2c0-6.8-4.5-12.3-13.3-12.3h-70.6
		c-8.6,0-13,5.4-13,12c0,6.6,4.4,12,13,12h54.8c1.9,0,3,1,3,3.2v9.4c0,2.2-1.1,3.2-3,3.2h-54.4c-8.8,0-13.3,5.5-13.3,12.3v39.1
		c0,6.8,4.5,12.3,13.3,12.3h70.6c8.6,0,13-5.4,13-12s-4.4-12-13-12H292c-1.9,0-3-1-3-3.2V202c0-2.2,1.1-3.2,3-3.2h54.4V198.9z"/>
	<path id="XMLID_39_" class="st2" d="M236.6,90.9c0-2.1,0.9-3.2,2.9-3.8c3.7-1,7.5-1.5,10.9-1.5c1.6,0,3.3,0.1,5,0.3
		s2.6,1.2,2.6,2.6c0,0.3-0.1,1-0.1,1.3l-0.1,0.7c-0.4,1.9-1,2.8-2.6,2.8c-1,0-2.7-0.3-4.6-0.3c-1.7,0-4.1,0.2-5.6,0.7v24.5
		c0,2.1-0.9,3-3,3h-2.2c-2.1,0-3-0.9-3-3V90.9H236.6z"/>
	<path id="XMLID_36_" class="st2" d="M264.7,91.1c-0.2-0.5-0.3-1-0.3-1.4c0-1.3,1-2,1.9-2.4c2.3-1,7-1.7,10.9-1.7
		c9.7,0,14.5,4.2,14.5,14.3v17.2c0,2.5-1.2,3.2-3,3.6c-2.3,0.5-8.2,1.2-12.1,1.2c-9.6,0-15.4-3.7-15.4-11.3c0-7.7,6-11.2,14.9-11.2
		c3.5,0,6.1,0.6,7.4,0.9v-1c0-4.3-2.1-6.8-7.7-6.8c-2.8,0-4.9,0.6-6.9,1.2c-0.6,0.2-1.2,0.3-1.7,0.3c-1.1,0-1.7-0.6-2.3-2.1
		L264.7,91.1z M283.6,106.1c-1.6-0.5-3.7-0.8-5.9-0.8c-5.4,0-8.1,1.7-8.1,5.2s2.6,5.1,8.2,5.1c2,0,4.2-0.2,5.8-0.7V106.1z"/>
	<path id="XMLID_33_" class="st2" d="M322.7,75.2c0-2.1,0.9-3,3-3h2.2c2.1,0,3,0.9,3,3v41.6c0,2.3-1.1,3.2-2.8,3.7
		c-2.3,0.8-7,1.2-10.2,1.2c-12.4,0-18.9-6.9-18.9-18c0-11.3,6.8-18.3,17.8-18.3c2.5,0,4.5,0.3,5.9,0.8V75.2z M322.7,93.4
		c-1.2-0.4-3.2-0.7-4.9-0.7c-7.2,0-10.3,4.4-10.3,11s3.1,11,10.3,11c1.7,0,3.7-0.3,4.9-0.7V93.4z"/>
	<path id="XMLID_30_" class="st2" d="M344,71.5c3,0,5.1,2,5.1,5s-2.1,5-5.1,5s-5.1-2-5.1-5S341,71.5,344,71.5 M339.9,89.2
		c0-2.1,0.9-3,3-3h2.2c2.1,0,3,0.9,3,3v28.8c0,2.1-0.9,3-3,3h-2.2c-2.1,0-3-0.9-3-3V89.2z"/>
	<path id="XMLID_27_" class="st2" d="M356.7,103.7c0-11.8,6.8-18.1,17.3-18.1s17.3,6.3,17.3,18.1c0,11.9-6.8,18.1-17.3,18.1
		C363.5,121.8,356.7,115.5,356.7,103.7 M382.9,103.7c0-7-3.2-11-8.9-11c-5.7,0-8.9,4-8.9,11c0,7.1,3.2,11,8.9,11
		C379.7,114.7,382.9,110.8,382.9,103.7"/>
</g>
<path id="XMLID_1_" class="st1" d="M491.2,149.6c0.1,11.5-4.2,23-13,31.7l-70.8,70.8H749l13.6-102.5L491.2,149.6L491.2,149.6z"/>
<g id="XMLID_404_">
	<path id="XMLID_414_" class="st2" d="M501.1,220.1l30.7-24.4c0.8-0.7,1.6-1.3,2.4-2c0.8-0.7,1.6-1.4,2.3-2.2
		c0.7-0.8,1.3-1.6,1.8-2.6c0.5-0.9,0.9-1.9,1-3c0.3-2.4-0.3-4.2-1.8-5.6s-3.4-2-5.7-2c-2.8,0-5,0.9-6.8,2.6s-2.9,3.8-3.5,6.3
		l-14.7-1.1c0.7-3.6,1.9-6.8,3.7-9.4c1.7-2.7,3.8-4.9,6.2-6.7c2.4-1.8,5.1-3.1,8.2-4c3.1-0.9,6.3-1.3,9.7-1.3c3.2,0,6.1,0.4,8.7,1.3
		c2.6,0.9,4.8,2.2,6.6,4c1.8,1.7,3.1,3.9,3.9,6.6c0.8,2.6,1,5.7,0.5,9.2c-0.7,4.5-2,8.2-4.2,11c-2.1,2.9-4.7,5.5-7.7,7.8l-23.8,18.3
		h31.1l-1.8,13.1H499L501.1,220.1z"/>
	<path id="XMLID_411_" class="st2" d="M560,200.9c0.6-4.2,1.6-8.4,3-12.7c1.4-4.3,3.3-8.2,5.7-11.7s5.5-6.3,9.2-8.6
		c3.7-2.2,8.1-3.3,13.3-3.3s9.3,1.1,12.4,3.3c3,2.2,5.3,5.1,6.7,8.6c1.5,3.5,2.3,7.4,2.4,11.7c0.2,4.3-0.1,8.5-0.6,12.7
		c-0.6,4.2-1.6,8.4-2.9,12.7c-1.4,4.3-3.2,8.2-5.7,11.7c-2.4,3.5-5.5,6.3-9.2,8.6c-3.7,2.2-8.1,3.3-13.3,3.3s-9.3-1.1-12.4-3.3
		c-3-2.2-5.3-5.1-6.8-8.6s-2.3-7.4-2.5-11.7C559.2,209.1,559.5,205,560,200.9z M574.9,200.9c-0.3,1.8-0.5,4.1-0.7,6.6
		c-0.2,2.6-0.1,5,0.3,7.4c0.4,2.4,1.2,4.4,2.5,6s3.2,2.5,5.9,2.5c2.6,0,4.8-0.8,6.6-2.5c1.7-1.6,3.1-3.7,4.2-6
		c1.1-2.4,1.8-4.8,2.4-7.4c0.5-2.6,0.9-4.8,1.2-6.6c0.3-1.8,0.5-4.1,0.7-6.6c0.2-2.6,0.1-5-0.3-7.4c-0.4-2.4-1.2-4.4-2.5-6
		s-3.3-2.5-5.9-2.5c-2.7,0-4.9,0.8-6.6,2.5c-1.7,1.6-3.1,3.7-4.2,6c-1.1,2.4-1.8,4.8-2.4,7.4C575.5,196.8,575.2,199,574.9,200.9z"/>
	<path id="XMLID_408_" class="st2" d="M619.1,200.9c0.6-4.2,1.6-8.4,3-12.7c1.4-4.3,3.3-8.2,5.7-11.7s5.5-6.3,9.2-8.6
		c3.7-2.2,8.1-3.3,13.3-3.3s9.3,1.1,12.4,3.3c3,2.2,5.3,5.1,6.7,8.6c1.5,3.5,2.3,7.4,2.4,11.7c0.2,4.3-0.1,8.5-0.6,12.7
		c-0.6,4.2-1.6,8.4-2.9,12.7c-1.4,4.3-3.2,8.2-5.7,11.7c-2.4,3.5-5.5,6.3-9.2,8.6c-3.7,2.2-8.1,3.3-13.3,3.3s-9.3-1.1-12.4-3.3
		c-3-2.2-5.3-5.1-6.8-8.6s-2.3-7.4-2.5-11.7C618.2,209.1,618.5,205,619.1,200.9z M633.9,200.9c-0.3,1.8-0.5,4.1-0.7,6.6
		c-0.2,2.6-0.1,5,0.3,7.4c0.4,2.4,1.2,4.4,2.5,6s3.2,2.5,5.9,2.5c2.6,0,4.8-0.8,6.6-2.5c1.7-1.6,3.1-3.7,4.2-6
		c1.1-2.4,1.8-4.8,2.4-7.4c0.5-2.6,0.9-4.8,1.2-6.6c0.3-1.8,0.5-4.1,0.7-6.6c0.2-2.6,0.1-5-0.3-7.4c-0.4-2.4-1.2-4.4-2.5-6
		s-3.3-2.5-5.9-2.5c-2.7,0-4.9,0.8-6.6,2.5c-1.7,1.6-3.1,3.7-4.2,6c-1.1,2.4-1.8,4.8-2.4,7.4C634.6,196.8,634.2,199,633.9,200.9z"/>
	<path id="XMLID_405_" class="st2" d="M678.1,200.9c0.6-4.2,1.6-8.4,3-12.7c1.4-4.3,3.3-8.2,5.7-11.7s5.5-6.3,9.2-8.6
		c3.7-2.2,8.1-3.3,13.3-3.3s9.3,1.1,12.4,3.3c3,2.2,5.3,5.1,6.7,8.6c1.5,3.5,2.3,7.4,2.4,11.7c0.2,4.3-0.1,8.5-0.6,12.7
		c-0.6,4.2-1.6,8.4-2.9,12.7c-1.4,4.3-3.2,8.2-5.7,11.7c-2.4,3.5-5.5,6.3-9.2,8.6c-3.7,2.2-8.1,3.3-13.3,3.3s-9.3-1.1-12.4-3.3
		c-3-2.2-5.3-5.1-6.8-8.6s-2.3-7.4-2.5-11.7C677.2,209.1,677.5,205,678.1,200.9z M692.9,200.9c-0.3,1.8-0.5,4.1-0.7,6.6
		c-0.2,2.6-0.1,5,0.3,7.4c0.4,2.4,1.2,4.4,2.5,6s3.2,2.5,5.9,2.5c2.6,0,4.8-0.8,6.6-2.5c1.7-1.6,3.1-3.7,4.2-6
		c1.1-2.4,1.8-4.8,2.4-7.4c0.5-2.6,0.9-4.8,1.2-6.6c0.3-1.8,0.5-4.1,0.7-6.6c0.2-2.6,0.1-5-0.3-7.4c-0.4-2.4-1.2-4.4-2.5-6
		s-3.3-2.5-5.9-2.5c-2.7,0-4.9,0.8-6.6,2.5c-1.7,1.6-3.1,3.7-4.2,6c-1.1,2.4-1.8,4.8-2.4,7.4C693.6,196.8,693.2,199,692.9,200.9z"/>
</g>
<path id="XMLID_3_" class="st2" d="M491.2,149.6h271.5l13.6-102.5H406.9l71.4,71.4C486.8,127.1,491.2,138.4,491.2,149.6z"/>
<g id="XMLID_245_">
	<path id="XMLID_252_" class="st1" d="M538.3,77.1h-20l1.9-13.7h55.4l-1.9,13.7h-20l-7.9,56.4h-15.4L538.3,77.1z"/>
	<path id="XMLID_249_" class="st1" d="M571.6,98.4c0.8-5.6,2.5-10.7,5-15.2c2.5-4.6,5.7-8.4,9.5-11.6c3.8-3.2,8.1-5.7,13-7.4
		c4.9-1.7,10.1-2.6,15.5-2.6c5.5,0,10.4,0.9,14.7,2.6c4.4,1.7,8,4.2,10.9,7.4s5,7.1,6.2,11.6c1.3,4.6,1.5,9.6,0.7,15.2
		c-0.8,5.6-2.4,10.7-4.9,15.2c-2.5,4.6-5.7,8.4-9.5,11.6c-3.8,3.2-8.2,5.7-13,7.4s-10,2.6-15.5,2.6s-10.4-0.9-14.8-2.6
		c-4.4-1.7-8-4.2-10.9-7.4s-5-7.1-6.2-11.6C571,109.1,570.8,104,571.6,98.4z M587.6,98.4c-0.5,3.3-0.4,6.3,0.3,9.1
		c0.7,2.7,1.8,5.1,3.4,7.1c1.6,2,3.7,3.6,6.2,4.7c2.5,1.1,5.4,1.7,8.7,1.7s6.4-0.6,9.2-1.7c2.8-1.1,5.3-2.7,7.5-4.7s4-4.4,5.4-7.1
		c1.4-2.7,2.4-5.8,2.8-9.1c0.5-3.2,0.4-6.2-0.2-9c-0.6-2.8-1.8-5.2-3.4-7.2c-1.6-2-3.7-3.6-6.2-4.7c-2.5-1.1-5.4-1.7-8.7-1.7
		s-6.4,0.6-9.2,1.7c-2.8,1.1-5.3,2.7-7.5,4.7s-4,4.4-5.4,7.2C589,92.2,588.1,95.2,587.6,98.4z"/>
	<path id="XMLID_246_" class="st1" d="M661.7,63.4h26c3.6,0,7,0.3,10.1,1c3.1,0.7,5.8,1.8,8,3.4c2.2,1.6,3.8,3.8,4.8,6.5
		c1.1,2.7,1.3,6.2,0.7,10.3s-1.7,7.5-3.5,10.3c-1.7,2.8-3.8,5-6.4,6.6c-2.5,1.6-5.4,2.8-8.7,3.5s-6.7,1-10.4,1H671l-3.8,27.3H652
		L661.7,63.4z M673,93.1h10.3c1.4,0,2.7-0.1,4.1-0.4c1.3-0.3,2.5-0.7,3.7-1.3c1.1-0.6,2.1-1.5,2.9-2.6c0.8-1.1,1.3-2.5,1.5-4.1
		c0.3-1.8,0-3.2-0.6-4.3c-0.7-1.1-1.6-1.9-2.9-2.5c-1.2-0.6-2.6-1-4.2-1.1c-1.5-0.2-3.1-0.2-4.5-0.2h-7.9L673,93.1z"/>
</g>
</svg>
